<svg xmlns="http://www.w3.org/2000/svg"  viewBox="0 0 100 100" width="100px" height="100px" fill-rule="evenodd" clip-rule="evenodd" baseProfile="basic"><path fill-opacity=".349" d="M38.562,90.826l-1.857,0.264	c-9.176,0.564-18.33-3.973-23.236-12.472c-2.692-4.658-3.708-9.832-3.247-14.811l0.748-3.851l-1.159-1.479	c-5.076-7.666-5.725-17.862-0.817-26.362c2.688-4.656,6.66-8.124,11.204-10.214l3.711-1.279l0.7-1.741	c4.099-8.231,12.604-13.893,22.42-13.893c5.379,0,10.368,1.708,14.449,4.598l2.961,2.573l1.857-0.264	c9.176-0.564,18.329,3.973,23.238,12.47c2.689,4.66,3.707,9.835,3.244,14.814l-0.748,3.852l1.157,1.477	c5.077,7.664,5.727,17.861,0.821,26.36c-2.691,4.659-6.663,8.127-11.207,10.216l-3.708,1.279l-0.701,1.743	c-4.099,8.228-12.605,13.886-22.416,13.886c-5.381,0-10.371-1.704-14.452-4.594L38.562,90.826z"/><path fill="#f2f2f2" fill-rule="evenodd" d="M36.562,88.826	l-1.857,0.264c-9.176,0.564-18.33-3.973-23.236-12.473c-2.692-4.658-3.708-9.832-3.247-14.811l0.748-3.851l-1.159-1.479	c-5.076-7.666-5.725-17.862-0.817-26.362c2.688-4.656,6.66-8.124,11.204-10.214l3.711-1.279l0.7-1.741	C26.708,8.65,35.213,2.988,45.029,2.988c5.379,0,10.368,1.708,14.449,4.598l2.961,2.573l1.857-0.264	c9.176-0.564,18.329,3.973,23.238,12.47c2.689,4.66,3.707,9.835,3.244,14.814l-0.748,3.852l1.157,1.477	c5.077,7.664,5.727,17.861,0.821,26.36c-2.691,4.659-6.663,8.127-11.207,10.216l-3.708,1.279l-0.701,1.743	c-4.099,8.228-12.605,13.886-22.416,13.886c-5.381,0-10.371-1.704-14.452-4.594L36.562,88.826z" clip-rule="evenodd"/><path fill="#d9eeff" fill-rule="evenodd" d="M43.281,86.094	l-2.776-2.411l-1.025-1.22c-0.379-0.449-0.985-0.637-1.551-0.479l-0.737,0.207l-5.796,0.361c-5.764-0.555-11.188-3.797-14.297-9.186	c-1.992-3.444-2.747-7.27-2.404-10.959l0.701-3.612l0.541-1.497c0.2-0.552,0.059-1.171-0.36-1.581l-0.547-0.535l-3.211-4.84	c-2.403-5.27-2.307-11.588,0.804-16.977c1.988-3.444,4.924-6.011,8.291-7.559l3.475-1.197l1.571-0.281	c0.577-0.103,1.043-0.533,1.189-1.103l0.191-0.743l2.585-5.199c3.363-4.718,8.881-7.795,15.104-7.795	c3.977,0,7.668,1.26,10.692,3.403l2.78,2.415l1.021,1.213c0.377,0.449,0.983,0.636,1.548,0.48l0.744-0.205l5.792-0.361	c5.764,0.555,11.188,3.797,14.3,9.183c1.989,3.447,2.744,7.274,2.401,10.963l-0.7,3.608l-0.543,1.497	c-0.2,0.552-0.06,1.172,0.36,1.583l0.545,0.536l3.212,4.84c2.403,5.27,2.307,11.588-0.801,16.974	c-1.991,3.447-4.927,6.014-8.292,7.562l-3.476,1.197l-1.568,0.28c-0.577,0.103-1.043,0.533-1.189,1.103l-0.192,0.744l-2.585,5.199	c-3.363,4.715-8.881,7.79-15.1,7.79C49.995,89.492,46.305,88.234,43.281,86.094z" clip-rule="evenodd"/><path fill="#40396e" fill-rule="evenodd" d="M48.257,61.789	L25.752,48.794c-0.464-0.268-0.749-0.764-0.749-1.3V27.993c0-11.043,8.987-20.001,20.025-20.001c6.556,0,12.388,3.163,16.041,8.038	c0.496,0.663,0.361,1.603-0.301,2.1c-0.663,0.496-1.603,0.361-2.1-0.301c-3.112-4.152-8.069-6.836-13.64-6.836	c-9.387,0-17.025,7.62-17.025,17.001v18.635L49.757,59.19c0.717,0.415,0.963,1.332,0.549,2.049	C49.891,61.957,48.974,62.202,48.257,61.789z" clip-rule="evenodd"/><path fill="#40396e" fill-rule="evenodd" d="M35.52,69.713	c-5.629-3.251-11.259-6.5-16.888-9.751c-9.564-5.522-12.825-17.785-7.308-27.344c3.279-5.678,8.933-9.147,14.981-9.874	c0.823-0.1,1.569,0.488,1.668,1.309c0.1,0.823-0.488,1.569-1.309,1.668c-5.152,0.62-9.956,3.572-12.741,8.396	c-4.693,8.13-1.915,18.555,6.209,23.245l16.137,9.319l21.757-12.562c0.717-0.413,1.635-0.168,2.049,0.549	c0.413,0.717,0.168,1.635-0.549,2.049L37.02,69.713C36.556,69.981,35.984,69.981,35.52,69.713z" clip-rule="evenodd"/><path fill="#40396e" fill-rule="evenodd" d="M15.836,74.088	c-3.296-5.674-3.472-12.3-1.067-17.898c0.327-0.76,1.209-1.112,1.971-0.785c0.76,0.327,1.112,1.209,0.785,1.971	c-2.048,4.763-1.893,10.39,0.904,15.205c4.715,8.12,15.185,10.93,23.356,6.239l16.213-9.304l0.001-25.092	c0-0.828,0.672-1.5,1.5-1.499c0.828,0,1.5,0.672,1.499,1.5l-0.001,25.958c0,0.536-0.287,1.033-0.753,1.3	c-5.656,3.245-11.309,6.492-16.964,9.738C33.68,86.933,21.38,83.638,15.836,74.088z" clip-rule="evenodd"/><path fill="#40396e" fill-rule="evenodd" d="M37.934,82.959	c-0.496-0.663-0.361-1.603,0.301-2.1c0.663-0.496,1.603-0.361,2.1,0.301c3.112,4.152,8.069,6.835,13.641,6.835	c9.385,0,17.025-7.619,17.025-16.999V52.361L49.246,39.799c-0.717-0.415-0.963-1.332-0.549-2.049	c0.415-0.717,1.332-0.963,2.049-0.549l22.505,12.995c0.464,0.268,0.751,0.764,0.751,1.299v19.502	c0,11.043-8.988,19.999-20.025,19.999C47.419,90.996,41.587,87.834,37.934,82.959z" clip-rule="evenodd"/><path fill="#40396e" fill-rule="evenodd" d="M71.03,74.935	c-0.1-0.823,0.488-1.569,1.309-1.668c5.152-0.62,9.956-3.572,12.741-8.396c4.693-8.13,1.915-18.555-6.211-23.245l-16.137-9.318	L40.977,44.868c-0.717,0.413-1.635,0.168-2.049-0.549c-0.413-0.717-0.168-1.635,0.549-2.049l22.506-12.994	c0.464-0.268,1.036-0.268,1.5,0c5.629,3.251,11.259,6.5,16.886,9.751c9.565,5.522,12.826,17.785,7.309,27.344	c-3.279,5.678-8.933,9.147-14.981,9.874C71.875,76.344,71.128,75.756,71.03,74.935z" clip-rule="evenodd"/><path fill="#40396e" fill-rule="evenodd" d="M38.007,54.564	l0.001-25.989c0-0.536,0.287-1.032,0.752-1.3c5.656-3.249,11.313-6.5,16.972-9.751c9.601-5.516,21.905-2.216,27.45,7.343	c3.296,5.679,3.472,12.312,1.065,17.917c-0.327,0.76-1.209,1.112-1.971,0.785c-0.76-0.327-1.112-1.209-0.785-1.971	c2.049-4.77,1.895-10.403-0.905-15.226c-4.716-8.13-15.19-10.942-23.36-6.247l-16.221,9.319v25.121c0,0.828-0.672,1.5-1.5,1.499	C38.678,56.064,38.006,55.392,38.007,54.564z" clip-rule="evenodd"/></svg>